<svg xmlns="http://www.w3.org/2000/svg" xmlns:xlink="http://www.w3.org/1999/xlink" id="timed-moving-average" x="0" y="0" version="1.1" viewBox="0 0 340 183" xml:space="preserve" style="enable-background:new 0 0 340 183"><style type="text/css">.st0{fill:none;stroke-miterlimit:10}.st3{font-size:14px}.st4{fill:#d75189;fill-opacity:.15;stroke:#d75189;stroke-miterlimit:10}.st5{fill:none;stroke:#dc4e58}.st5,.st6,.st7{stroke-miterlimit:10}.st6{fill:#d355ba;fill-opacity:.15;stroke:#d355ba}.st7{fill:none;stroke:#d553a2}.st10,.st8,.st9{stroke-miterlimit:10}.st8,.st9{stroke:#ce58eb}.st8{fill:#ce58eb;fill-opacity:.15}.st9{fill:none}.st10{fill:#8971f2;fill-opacity:.15;stroke:#8971f2}.st11,.st12,.st13{fill:none;stroke:#677ef5;stroke-miterlimit:10}.st12,.st13{fill:#458af8;fill-opacity:.15;stroke:#458af8}.st13{fill:#00a3ff;stroke:#00a3ff}.st14{fill:#458af8}.st15{fill:#8971f2}.st16{fill:#ce58eb}.st17{fill:#d355ba}.st18{fill:#d75189}.st19{fill-opacity:.15;stroke:#dc4e58;stroke-miterlimit:10}.st19,.st20{fill:#dc4e58}.st21{fill:none;stroke:#00a3ff;stroke-miterlimit:10}</style><line x1="19.5" x2="319.58" y1="153.28" y2="153.28" class="st0"/><g><line x1="19.5" x2="19.5" y1="157.28" y2="149.28" class="st0"/><line x1="69.51" x2="69.51" y1="157.28" y2="149.28" class="st0"/><line x1="119.52" x2="119.52" y1="157.28" y2="149.28" class="st0"/><line x1="169.54" x2="169.54" y1="157.28" y2="149.28" class="st0"/><line x1="219.55" x2="219.55" y1="157.28" y2="149.28" class="st0"/><line x1="269.56" x2="269.56" y1="157.28" y2="149.28" class="st0"/><line x1="319.58" x2="319.58" y1="157.28" y2="149.28" class="st0"/></g><text class="st1 st2 st3" transform="matrix(1 0 0 1 3.4638 177.0608)">0:00</text><text class="st1 st2 st3" transform="matrix(1 0 0 1 53.791 177.0608)">0:30</text><text class="st1 st2 st3" transform="matrix(1 0 0 1 105.0908 177.061)">1:00</text><text class="st1 st2 st3" transform="matrix(1 0 0 1 155.4189 177.0608)">1:30</text><text class="st1 st2 st3" transform="matrix(1 0 0 1 204.2617 177.0611)">2:00</text><text class="st1 st2 st3" transform="matrix(1 0 0 1 254.5893 177.0605)">2:30</text><text class="st1 st2 st3" transform="matrix(1 0 0 1 304.4472 177.061)">3:00</text><polyline points="19.5 65.28 19.5 55.11 119.52 55.11 119.52 65.28" class="st4"/><line x1="119.52" x2="119.52" y1="55.09" y2="26.45" class="st5"/><polyline points="69.51 80.86 69.51 70.69 169.54 70.69 169.54 80.86" class="st6"/><line x1="169.54" x2="169.54" y1="70.64" y2="26.45" class="st7"/><polyline points="119.52 96.44 119.52 86.27 219.55 86.27 219.55 96.44" class="st8"/><line x1="219.55" x2="219.55" y1="86.2" y2="26.45" class="st9"/><polyline points="169.54 112.02 169.54 101.85 269.56 101.85 269.56 112.02" class="st10"/><line x1="269.56" x2="269.56" y1="101.75" y2="26.45" class="st11"/><polyline points="219.55 127.6 219.55 117.44 319.58 117.44 319.58 127.6" class="st12"/><polyline points="269.56 143.18 269.56 133.02 319.58 133.02 319.58 143.18" class="st13"/><text class="st14 st2 st3" transform="matrix(1 0 0 1 304.4474 15.9156)">3:00</text><text class="st15 st2 st3" transform="matrix(1 0 0 1 254.5889 15.9156)">2:30</text><text class="st16 st2 st3" transform="matrix(1 0 0 1 204.2616 15.9155)">2:00</text><text class="st17 st2 st3" transform="matrix(1 0 0 1 155.4183 15.9157)">1:30</text><text class="st18 st2 st3" transform="matrix(1 0 0 1 105.0907 15.9159)">1:00</text><polyline points="19.23 49.7 19.23 39.53 69.24 39.53 69.24 49.7" class="st19"/><line x1="69.24" x2="69.24" y1="39.53" y2="26.52" class="st5"/><text class="st20 st2 st3" transform="matrix(1 0 0 1 53.6409 15.991)">0:30</text><line x1="319.58" x2="319.58" y1="135.02" y2="26.45" class="st21"/></svg>