<svg xmlns="http://www.w3.org/2000/svg" xmlns:xlink="http://www.w3.org/1999/xlink" x="0" y="0" version="1.1" viewBox="0 0 271.6 290" xml:space="preserve" style="enable-background:new 0 0 271.6 290;max-width:500px;width:100%"><style type="text/css">.st0{fill:#41a9df}.st1{fill:#c84f9d}.st2{fill:#fff}.st3{font-family:Roboto}.st4{font-size:10px}.st5{fill:#a66cad}.st6{fill:#7f7ebc}.st7,.st8{fill:none;stroke:#41a9df;stroke-miterlimit:10}.st8{stroke:#c7509d}.st9{fill:#c7509d}.st10,.st11{fill:none;stroke:#a66cad;stroke-miterlimit:10}.st11{stroke:#7f7ebc}</style><path d="M171.7,223.05h-71.05c-1.66,0-3,1.34-3,3v17.87h77.05v-17.87C174.7,224.39,173.36,223.05,171.7,223.05z" class="st0"/><g><g><circle cx="56.71" cy="23.12" r="10.82" class="st1"/><path d="M74.62,60.84H38.79V42.93c0-3.36,2.73-6.09,6.09-6.09h23.65c3.36,0,6.09,2.73,6.09,6.09V60.84z" class="st1"/><text class="st2 st3 st4" transform="matrix(1 0 0 1 46.2591 53.7418)">User</text></g><g><circle cx="109.44" cy="23.12" r="10.82" class="st1"/><path d="M127.35,60.84H91.52V42.93c0-3.36,2.73-6.09,6.09-6.09h23.65c3.36,0,6.09,2.73,6.09,6.09V60.84z" class="st1"/><text class="st2 st3 st4" transform="matrix(1 0 0 1 98.987 53.7418)">User</text></g><g><circle cx="162.16" cy="23.12" r="10.82" class="st1"/><path d="M180.08,60.84h-35.83V42.93c0-3.36,2.73-6.09,6.09-6.09h23.65c3.36,0,6.09,2.73,6.09,6.09V60.84z" class="st1"/><text class="st2 st3 st4" transform="matrix(1 0 0 1 151.7149 53.7418)">User</text></g><g><circle cx="214.89" cy="23.12" r="10.82" class="st1"/><path d="M232.81,60.84h-35.83V42.93c0-3.36,2.73-6.09,6.09-6.09h23.65c3.36,0,6.09,2.73,6.09,6.09V60.84z" class="st1"/><text class="st2 st3 st4" transform="matrix(1 0 0 1 204.4428 53.7418)">User</text></g></g><path d="M186.05,125.03H85.55c-1.66,0-3-1.34-3-3v-21.49c0-1.66,1.34-3,3-3h100.51c1.66,0,3,1.34,3,3v21.49	C189.05,123.69,187.71,125.03,186.05,125.03z" class="st5"/><text class="st2 st3 st4" transform="matrix(1 0 0 1 103.7954 114.7918)">Load Balancer</text><g><path d="M88.37,184.7H13.78c-1.66,0-3-1.34-3-3v-21.49c0-1.66,1.34-3,3-3h74.59c1.66,0,3,1.34,3,3v21.49 C91.37,183.36,90.03,184.7,88.37,184.7z" class="st6"/><text class="st2 st3 st4" transform="matrix(1 0 0 1 25.7314 174.4637)">Chronograf</text><path d="M173.1,184.7H98.5c-1.66,0-3-1.34-3-3v-21.49c0-1.66,1.34-3,3-3h74.59c1.66,0,3,1.34,3,3v21.49 C176.1,183.36,174.75,184.7,173.1,184.7z" class="st6"/><text class="st2 st3 st4" transform="matrix(1 0 0 1 110.4565 174.4637)">Chronograf</text><path d="M257.82,184.7h-74.59c-1.66,0-3-1.34-3-3v-21.49c0-1.66,1.34-3,3-3h74.59c1.66,0,3,1.34,3,3v21.49 C260.82,183.36,259.48,184.7,257.82,184.7z" class="st6"/><text class="st2 st3 st4" transform="matrix(1 0 0 1 195.1817 174.4637)">Chronograf</text></g><g><path d="M90.44,272.81H59.92c-1.66,0-3-1.34-3-3v-17.78c0-1.66,1.34-3,3-3h30.52c1.66,0,3,1.34,3,3v17.78 C93.44,271.47,92.09,272.81,90.44,272.81z" class="st0"/><path d="M131.17,272.81h-30.52c-1.66,0-3-1.34-3-3v-17.78c0-1.66,1.34-3,3-3h30.52c1.66,0,3,1.34,3,3v17.78 C134.17,271.47,132.83,272.81,131.17,272.81z" class="st0"/><path d="M171.7,272.81h-30.52c-1.66,0-3-1.34-3-3v-17.78c0-1.66,1.34-3,3-3h30.52c1.66,0,3,1.34,3,3v17.78 C174.7,271.47,173.36,272.81,171.7,272.81z" class="st0"/><path d="M212.44,272.81h-30.52c-1.66,0-3-1.34-3-3v-17.78c0-1.66,1.34-3,3-3h30.52c1.66,0,3,1.34,3,3v17.78 C215.44,271.47,214.09,272.81,212.44,272.81z" class="st0"/></g><path d="M213.52,277.92H58.83c-3.87,0-7-3.13-7-7v-20.01c0-3.87,3.13-7,7-7h154.69c3.87,0,7,3.13,7,7v20.01	C220.52,274.79,217.39,277.92,213.52,277.92z" class="st7"/><text class="st2 st3 st4" transform="matrix(1 0 0 1 109.1429 237.4062)">etcd Cluster</text><g><g><g><path d="M56.54,60.84c0,13.74,44.64,8.78,50.16,28.67" class="st8"/><g><polygon points="103.49 89.13 107.26 93.78 109.4 88.19" class="st9"/></g></g></g><g><g><path d="M109.16,60.84c0,14.17,14.89,8.56,16.72,28.64" class="st8"/><g><polygon points="122.79 88.77 126.07 93.78 128.77 88.44" class="st9"/></g></g></g><g><g><path d="M161.79,60.84c0,14.6-14.91,8.34-16.73,28.64" class="st8"/><g><polygon points="142.18 88.44 144.88 93.78 148.15 88.77" class="st9"/></g></g></g><g><g><path d="M214.41,60.84c0,15.04-44.82,8.11-50.19,28.66" class="st8"/><g><polygon points="161.5 88.21 163.69 93.78 167.42 89.1" class="st9"/></g></g></g></g><g><g><g><path d="M107.26,125.03c0,13.73-49.37,4.39-55.55,23.68" class="st10"/><g><polygon points="49.06 147.34 51.07 152.97 54.94 148.41" class="st5"/></g></g></g><g><g><path d="M135.48,125.03c0,14.37,0.28,4.07,0.32,23.63" class="st10"/><g><polygon points="132.76 147.82 135.8 152.97 138.74 147.76" class="st5"/></g></g></g><g><g><path d="M163.69,125.03c0,15.03,50.16,3.71,56.23,23.67" class="st10"/><g><polygon points="216.7 148.37 220.52 152.97 222.59 147.36" class="st5"/></g></g></g></g><g><g><g><path d="M51.07,184.47c0,13.75,57.11,8.77,64.13,28.69" class="st11"/><g><polygon points="111.98 212.91 115.91 217.41 117.85 211.75" class="st6"/></g></g></g><g><g><path d="M135.8,184.47c0,14.38,0.33,8.45,0.37,28.63" class="st11"/><g><polygon points="133.14 212.26 136.18 217.41 139.12 212.21" class="st6"/></g></g></g><g><g><path d="M220.52,184.47c0,15.05-56.67,8.11-63.43,28.68" class="st11"/><g><polygon points="154.43 211.78 156.44 217.41 160.31 212.85" class="st6"/></g></g></g></g></svg>