<svg xmlns="http://www.w3.org/2000/svg" xmlns:xlink="http://www.w3.org/1999/xlink" id="hero-img" x="0" y="0" version="1.1" viewBox="0 0 600 600" xml:space="preserve" style="enable-background:new 0 0 600 600"><style type="text/css">.st0{opacity:.25;fill:url(#SVGID_1_)}.st1{fill:url(#SVGID_2_)}.st2{fill:url(#SVGID_3_)}.st3{fill:url(#SVGID_4_)}.st4{fill:url(#SVGID_5_)}.st5{opacity:.51;fill:url(#SVGID_6_)}.st6{opacity:.69;fill:url(#SVGID_7_)}.st7{fill:url(#SVGID_8_)}.st8{fill:url(#SVGID_9_)}.st9{fill:url(#SVGID_10_)}.st10{fill:url(#SVGID_11_)}.st11{fill:url(#SVGID_12_)}.st12{fill:url(#SVGID_13_)}.st13{fill:url(#SVGID_14_)}.st14{fill:url(#SVGID_15_)}.st15{fill:url(#SVGID_16_)}.st16{fill:url(#SVGID_17_)}.st17{fill:url(#SVGID_18_)}.st18{opacity:.5;fill:url(#SVGID_19_)}.st19{opacity:.65}.st20{fill:url(#SVGID_20_)}.st21{opacity:.64}.st22{fill:url(#SVGID_21_)}.st23{opacity:.54;fill:url(#SVGID_22_)}.st24{opacity:.88}.st25{opacity:.31}.st26{fill:url(#SVGID_23_)}.st27{opacity:.3}.st28{fill:#439ed5}.st29{opacity:.62}.st30{fill:url(#SVGID_24_)}.st31{opacity:.4}.st32{opacity:.51}.st33{fill:url(#SVGID_25_)}.st34{opacity:.5}.st35{fill:url(#SVGID_26_)}.st36{fill:url(#SVGID_27_)}.st37{fill:url(#SVGID_28_)}.st38{opacity:.55}.st39{fill:url(#SVGID_29_)}.st40{fill:url(#SVGID_30_)}.st41{opacity:.6}.st42{fill:url(#SVGID_31_)}.st43{fill:url(#SVGID_32_)}.st44{fill:url(#SVGID_33_)}.st45{fill:url(#SVGID_34_)}.st46{fill:url(#SVGID_35_)}.st47{opacity:.78;fill:url(#SVGID_36_)}.st48{fill:url(#SVGID_37_)}.st49{opacity:.69;fill:url(#SVGID_38_)}.st50{opacity:.42;fill:url(#SVGID_39_)}.st51{opacity:.58}.st52{fill:#e5c9ed}.st53{opacity:.59;fill:url(#SVGID_40_)}.st54{opacity:.85;fill:url(#SVGID_41_)}.st55{fill:#ccec22}.st56{fill:url(#SVGID_42_)}.st57{fill:url(#SVGID_43_)}.st58{fill:#292933}.st59{fill:#47bcea}.st60{fill:url(#SVGID_44_)}.st61{fill:url(#SVGID_45_)}.st62{fill:url(#SVGID_46_)}.st63{opacity:.55;fill:url(#SVGID_47_)}.st64{fill:#b67fef}.st65{fill:url(#SVGID_48_)}.st66{fill:#aa6ff7}.st67{fill:url(#SVGID_49_)}.st68{fill:url(#SVGID_50_)}.st69{fill:url(#SVGID_51_)}.st70{fill:url(#SVGID_52_)}.st71{fill:url(#SVGID_53_)}.st72{fill:url(#SVGID_54_)}</style><g id="platform"><g><radialGradient id="SVGID_1_" cx="-497.77" cy="524.625" r="115.433" gradientTransform="matrix(1.8765 6.299008e-02 -6.241235e-02 0.9843 1265.2174 -21.8549)" gradientUnits="userSpaceOnUse"><stop offset="0" style="stop-color:#7a64e4"/><stop offset="1" style="stop-color:#7a64e5;stop-opacity:0"/></radialGradient><ellipse cx="287.2" cy="452.1" class="st0" rx="245.6" ry="133.7"/><g><linearGradient id="SVGID_2_" x1="78.808" x2="525.591" y1="426.257" y2="426.257" gradientUnits="userSpaceOnUse"><stop offset="0" style="stop-color:#1d1a33"/><stop offset="1" style="stop-color:#1d1934"/></linearGradient><path d="M525.5,424.8v-24H508v6.5L320.5,299.2c-11.3-6.5-25.2-6.5-36.5,0L96.3,407.5v-6.8L78.8,408l0.2,18.8l0,0.6 c0.3,4.7,2.8,9.2,7.5,11.9l197.5,114c11.3,6.5,25.2,6.5,36.5,0l197.5-114C523.6,436.1,526,430.4,525.5,424.8z" class="st1"/><linearGradient id="SVGID_3_" x1="309.434" x2="536.404" y1="426.422" y2="431.996" gradientUnits="userSpaceOnUse"><stop offset="0" style="stop-color:#1d1a33"/><stop offset=".809" style="stop-color:#292645"/></linearGradient><path d="M518.1,439.3l-197.5,114c-5.5,3.2-11.7,4.8-17.9,4.9v-264c6.2,0,12.4,1.7,17.9,4.9L508,407.4v-6.5l17.5,7.1 v16.9C526,430.4,523.6,436.1,518.1,439.3z" class="st2"/></g><g><linearGradient id="SVGID_4_" x1="2204.774" x2="2195.273" y1="525.776" y2="155.248" gradientTransform="matrix(-1 0 0 1 2503.6987 0)" gradientUnits="userSpaceOnUse"><stop offset=".004" style="stop-color:#524885"/><stop offset="1" style="stop-color:#36305f"/></linearGradient><path d="M517.9,394.9L320.2,280.8c-11.3-6.5-25.2-6.5-36.5,0L86,394.9c-10.1,5.8-10.1,20.3,0,26.1l197.7,114.1 c11.3,6.5,25.2,6.5,36.5,0L517.9,421C528,415.2,528,400.7,517.9,394.9z" class="st3"/><g><linearGradient id="SVGID_5_" x1="2201.753" x2="2201.753" y1="273.966" y2="541.938" gradientTransform="matrix(-1 0 0 1 2503.6987 0)" gradientUnits="userSpaceOnUse"><stop offset="0" style="stop-color:#36305f;stop-opacity:0"/><stop offset="1" style="stop-color:#4c387f"/></linearGradient><path d="M301.9,541.9c-6.6,0-13.3-1.7-19.2-5.1L85,422.7c-5.3-3.1-8.5-8.6-8.5-14.7c0-6.1,3.2-11.6,8.5-14.7 l197.7-114.1c11.9-6.8,26.6-6.8,38.4,0l197.7,114.1c5.3,3.1,8.5,8.6,8.5,14.7c0,6.1-3.2,11.6-8.5,14.7L321.2,536.8 C315.2,540.2,308.6,541.9,301.9,541.9z M301.9,277.8c-6,0-12,1.5-17.3,4.6L86.9,396.5c-4.1,2.4-6.6,6.6-6.6,11.4 c0,4.8,2.5,9,6.6,11.4l197.7,114.1c10.7,6.2,23.9,6.2,34.6,0l197.7-114.1c4.1-2.4,6.6-6.6,6.6-11.4c0-4.8-2.5-9-6.6-11.4 L319.3,282.4C313.9,279.3,307.9,277.8,301.9,277.8z" class="st4"/></g></g></g><radialGradient id="SVGID_6_" cx="-491.252" cy="356.48" r="105.528" gradientTransform="matrix(1.429 -0.1202 9.611484e-02 1.1429 1006.0948 -159.5117)" gradientUnits="userSpaceOnUse"><stop offset="0" style="stop-color:#22a4ed;stop-opacity:.8"/><stop offset=".925" style="stop-color:#b62fdc;stop-opacity:0"/></radialGradient><path d="M509.1,292.6c5.7,68.1-66.1,129.7-160.4,137.7s-175.4-40.8-181.2-108.9c-5.7-68.1,66.1-129.7,160.4-137.7 C422.3,175.7,503.4,224.5,509.1,292.6z" class="st5"/></g><g id="Layer_15"><g><linearGradient id="SVGID_7_" x1="203.099" x2="124.697" y1="422.389" y2="383.802" gradientUnits="userSpaceOnUse"><stop offset="0" style="stop-color:#1c1c23"/><stop offset=".766" style="stop-color:#2b264c;stop-opacity:0"/></linearGradient><polygon points="199.1 409.5 199.7 398.9 126.9 384.7 117.5 402 186.6 415.1 182.6 408.8" class="st6"/><linearGradient id="SVGID_8_" x1="190.112" x2="192.064" y1="456.963" y2="212.865" gradientUnits="userSpaceOnUse"><stop offset="0" style="stop-color:#241f4a"/><stop offset="1" style="stop-color:#565499"/></linearGradient><path d="M205.8,409.8L199.4,164l-16.7,8.2l-7.5,237.6l0,0c0,2.3,1.5,4.7,4.5,6.5c6,3.6,15.7,3.6,21.7,0 C204.3,414.5,205.8,412.2,205.8,409.8L205.8,409.8z" class="st7"/><g><linearGradient id="SVGID_9_" x1="167.577" x2="187.973" y1="189.185" y2="149.696" gradientUnits="userSpaceOnUse"><stop offset="0" style="stop-color:#565499"/><stop offset="1" style="stop-color:#2d2e5c"/></linearGradient><path d="M152.6,153.1c-4,13.6,22,33,46.1,41l-1.5-18l15.2-9.2C192.8,148,156.1,141.2,152.6,153.1z" class="st8"/><linearGradient id="SVGID_10_" x1="776.621" x2="742.139" y1="144.062" y2="194.061" gradientTransform="matrix(1 0 0 1 -547.1423 0)" gradientUnits="userSpaceOnUse"><stop offset="0" style="stop-color:#6365ad"/><stop offset="1" style="stop-color:#434280"/></linearGradient><path d="M215.6,173.8c0,6.9-4.8,15.3-10.9,18.8c-2.8,1.6-5.3,1.9-7.2,1c-0.3-0.1-0.6-0.3-0.9-0.5 c-1.7-1.2-2.7-3.5-2.7-6.7c0-6.9,4.8-15.3,10.8-18.8c3.1-1.8,5.9-1.9,7.9-0.7C214.4,168,215.5,170.4,215.6,173.8z" class="st9"/></g><g><linearGradient id="SVGID_11_" x1="87.169" x2="216.693" y1="301.113" y2="179.174" gradientUnits="userSpaceOnUse"><stop offset="0" style="stop-color:#241f4a"/><stop offset="1" style="stop-color:#565499"/></linearGradient><polygon points="76 290.7 185.7 229.3 203.4 186.1 201.5 181" class="st10"/><linearGradient id="SVGID_12_" x1="532.979" x2="713.193" y1="363.23" y2="209.527" gradientTransform="matrix(1 0 0 1 -547.1423 0)" gradientUnits="userSpaceOnUse"><stop offset="0" style="stop-color:#b22fd8"/><stop offset=".141" style="stop-color:#a539d9"/><stop offset=".398" style="stop-color:#8453dd"/><stop offset=".742" style="stop-color:#4f7de4"/><stop offset="1" style="stop-color:#22a0e9"/></linearGradient><polygon points="76 290.7 70.2 286.9 201.5 181" class="st11"/><linearGradient id="SVGID_13_" x1="214.22" x2="212.198" y1="6.576" y2="200.627" gradientUnits="userSpaceOnUse"><stop offset="0" style="stop-color:#22a0e9"/><stop offset=".258" style="stop-color:#4f7de4"/><stop offset=".602" style="stop-color:#8453dd"/><stop offset=".86" style="stop-color:#a539d9"/><stop offset="1" style="stop-color:#b22fd8"/></linearGradient><polygon points="207.9 176.1 218.6 20.9 209.8 20.9" class="st12"/><linearGradient id="SVGID_14_" x1="741.23" x2="742.445" y1="202.923" y2="51.151" gradientTransform="matrix(1 0 0 1 -547.1423 0)" gradientUnits="userSpaceOnUse"><stop offset="0" style="stop-color:#565499"/><stop offset="1" style="stop-color:#241f4a"/></linearGradient><polygon points="204.2 179.4 180.2 153.4 209.9 20.9 207.9 176.1" class="st13"/><linearGradient id="SVGID_15_" x1="818.682" x2="819.087" y1="227.164" y2="176.626" gradientTransform="matrix(1 0 0 1 -547.1423 0)" gradientUnits="userSpaceOnUse"><stop offset="0" style="stop-color:#381565"/><stop offset="1" style="stop-color:#565499"/></linearGradient><polygon points="210.3 176.8 243 166.3 333.2 219.8 210.5 181.3" class="st14"/><linearGradient id="SVGID_16_" x1="366.854" x2="149.558" y1="235.609" y2="156.775" gradientUnits="userSpaceOnUse"><stop offset="0" style="stop-color:#22a0e9"/><stop offset=".258" style="stop-color:#4f7de4"/><stop offset=".602" style="stop-color:#8453dd"/><stop offset=".86" style="stop-color:#a539d9"/><stop offset="1" style="stop-color:#b22fd8"/></linearGradient><polygon points="333 226.9 333 219.8 210.5 181.3" class="st15"/><linearGradient id="SVGID_17_" x1="211.06" x2="202.584" y1="194.123" y2="151.742" gradientUnits="userSpaceOnUse"><stop offset="0" style="stop-color:#22a0e9"/><stop offset=".258" style="stop-color:#4f7de4"/><stop offset=".602" style="stop-color:#8453dd"/><stop offset=".86" style="stop-color:#a539d9"/><stop offset="1" style="stop-color:#b22fd8"/></linearGradient><path d="M218.9,182.1c-1.7-3.6-4.8-8.5-7.6-10.4c0,0-0.1,0-0.1,0c-1.3-0.7-3-0.5-4.9,0.6c-4,2.3-7.2,7.8-7.1,12.4 c0,2.1,0.7,3.6,1.8,4.4c0.2,0.1,0.4,0.3,0.6,0.4c0.7,0.3,1.5,0.4,2.3,0.2c0.4,0.1,0.7,0.2,1.1,0.1c7.8-0.5,10.1-0.4,12.1-2.3 C218.4,186.4,219.6,183.6,218.9,182.1z" class="st16"/></g></g><g><linearGradient id="SVGID_18_" x1="243.249" x2="694.186" y1="435.527" y2="50.929" gradientUnits="userSpaceOnUse"><stop offset="0" style="stop-color:#22a1ea"/><stop offset=".262" style="stop-color:#507de5"/><stop offset=".604" style="stop-color:#8553de"/><stop offset=".86" style="stop-color:#a639da"/><stop offset="1" style="stop-color:#b32fd9"/></linearGradient><path d="M458.4,273l-10.6-6.1c0,0,0,0,0,0L429,256.1c-32.4-18.7-72.3-18.7-104.7,0l-82.7,47.7c0,0,0,0,0,0l-12.5,7.2 c-2.6,1.5-4.2,4.3-4.2,7.3l0.2,102.9c0,3.3,3,5.6,6,5.2c-1.4-0.9-2.3-2.5-2.3-4.3L228.6,319c0-2.1,0.8-4,2.1-5.6 c0.5-0.5,1-0.9,1.7-1.3l91.9-53c32.4-18.7,72.3-18.7,104.7,0l17.6,10.1c0,0.1-0.1,0.2-0.1,0.3l9.1,5.2c2.6,1.5,4.2,4.3,4.2,7.3 l-0.2,102.9c0,1.3-0.4,2.4-1.1,3.2c2.2-0.5,4-2.5,4-5.1l0.2-102.9C462.6,277.2,461,274.5,458.4,273z" class="st17"/><linearGradient id="SVGID_19_" x1="233.729" x2="735.36" y1="404.769" y2="146.744" gradientUnits="userSpaceOnUse"><stop offset="0" style="stop-color:#22a1ea"/><stop offset=".262" style="stop-color:#507de5"/><stop offset=".604" style="stop-color:#8553de"/><stop offset=".86" style="stop-color:#a639da"/><stop offset="1" style="stop-color:#b32fd9"/></linearGradient><path d="M455.5,274.4L429,259.2c-32.4-18.7-72.3-18.7-104.8,0l-91.9,53c-2.6,1.5-4.2,4.3-4.2,7.3l0.2,102.9 c0,4,4.4,6.5,7.9,4.5l97.8-56.4c26.4-15.2,58.8-15.2,85.2,0l32.5,18.7c3.5,2,7.8-0.5,7.9-4.5l0.2-102.9 C459.7,278.7,458.1,275.9,455.5,274.4z" class="st18"/><g class="st19"><linearGradient id="SVGID_20_" x1="240.531" x2="447.179" y1="439.395" y2="263.148" gradientUnits="userSpaceOnUse"><stop offset="0" style="stop-color:#22a1ea"/><stop offset=".262" style="stop-color:#507de5"/><stop offset=".604" style="stop-color:#8553de"/><stop offset=".86" style="stop-color:#a639da"/><stop offset="1" style="stop-color:#b32fd9"/></linearGradient><path d="M233.6,428.1c-1,0-2-0.3-2.9-0.8c-1.8-1-2.9-2.9-2.9-5l-0.2-102.9c0-3.2,1.7-6.1,4.5-7.7l91.9-53 c32.5-18.7,72.8-18.7,105.3,0l26.5,15.2c2.8,1.6,4.5,4.6,4.5,7.7L460,384.6c0,2.1-1.1,3.9-2.9,5c-1.8,1-4,1-5.8,0l-32.5-18.7 c-26.1-15.1-58.6-15.1-84.7,0l-97.8,56.4C235.5,427.8,234.5,428.1,233.6,428.1z M376.6,245.8c-18,0-36,4.6-52.1,13.9l-91.9,53 c-2.4,1.4-3.9,4-3.9,6.8l0.2,102.9c0,1.7,0.9,3.2,2.4,4.1c1.5,0.8,3.2,0.8,4.7,0l97.8-56.4c26.4-15.2,59.3-15.2,85.7,0l32.5,18.7 c1.5,0.9,3.2,0.9,4.7,0c1.5-0.8,2.4-2.4,2.4-4.1l0.2-102.9c0-2.8-1.5-5.4-3.9-6.8l-26.5-15.2 C412.6,250.4,394.6,245.8,376.6,245.8z" class="st20"/></g><g class="st21"><linearGradient id="SVGID_21_" x1="231.373" x2="453.069" y1="436.868" y2="247.786" gradientUnits="userSpaceOnUse"><stop offset="0" style="stop-color:#22a1ea"/><stop offset=".262" style="stop-color:#507de5"/><stop offset=".604" style="stop-color:#8553de"/><stop offset=".86" style="stop-color:#a639da"/><stop offset="1" style="stop-color:#b32fd9"/></linearGradient><path d="M218.4,418.6c-1,0-1.9-0.3-2.8-0.8c-1.8-1-2.8-2.9-2.8-4.9l-0.2-102.1c0-3.1,1.7-6.1,4.4-7.6L322.5,242 c32.1-18.5,71.9-18.5,103.9,0l4,2.3l0,0l0,0l37.1,21.2c2.7,1.6,4.4,4.5,4.4,7.6l-0.2,102.1c0,2.1-1.1,3.9-2.8,4.9 c-1.8,1-3.9,1-5.7,0l-0.4-0.2c-0.2-0.1-0.3-0.5-0.2-0.7c0.1-0.2,0.5-0.3,0.7-0.2l0.4,0.2c1.5,0.8,3.2,0.8,4.6,0 c1.5-0.8,2.3-2.3,2.3-4l0.2-102.1c0-2.8-1.5-5.4-3.9-6.7l-14.4-8.3l-0.1,0.1l-0.1-0.1L426,242.9c-31.7-18.3-71.2-18.3-102.9,0 L217.5,304c-2.4,1.4-3.9,4-3.9,6.7l0.2,102.1c0,1.7,0.9,3.2,2.3,4s3.2,0.8,4.6,0l4.2-2.4c0.2-0.1,0.6-0.1,0.7,0.2 c0.1,0.2,0.1,0.6-0.2,0.7l-4.2,2.4C220.4,418.3,219.4,418.6,218.4,418.6z" class="st22"/></g></g><linearGradient id="SVGID_22_" x1="232.779" x2="544.894" y1="349.882" y2="349.882" gradientUnits="userSpaceOnUse"><stop offset="0" style="stop-color:#22a3ec"/><stop offset=".251" style="stop-color:#4c82e7;stop-opacity:.5424"/><stop offset=".548" style="stop-color:#8258e1;stop-opacity:0"/></linearGradient><path d="M428.5,340.3l-13.9,6.5c-25.5-12.7-55.7-11.9-80.6,2.5l-40.8,23.5l-60.5,30.5v-60.9c0,0,32.6-12.2,39.1-14 c19.6-5.6,35.9,23.1,53.7,14.9c14.9-6.8,33.3-45.9,47.2-46.7C392.9,295.3,404.9,342.2,428.5,340.3z" class="st23"/><g class="st24"><g class="st25"><linearGradient id="SVGID_23_" x1="393.446" x2="393.446" y1="259.777" y2="328.015" gradientTransform="matrix(-1 0 0 1 766.525 0)" gradientUnits="userSpaceOnUse"><stop offset=".33" style="stop-color:#22a3ec;stop-opacity:0"/><stop offset=".788" style="stop-color:#22a3ec"/><stop offset=".986" style="stop-color:#22a3ec;stop-opacity:0"/></linearGradient><polygon points="372.7 328 372.4 259.8 373.5 259.8 373.8 328" class="st26"/></g><g class="st27"><rect width="1.1" height="3.8" x="372.7" y="332" class="st28" transform="matrix(1 -2.849729e-03 2.849729e-03 1 -0.9499 1.065)"/></g><g class="st29"><linearGradient id="SVGID_24_" x1="404.643" x2="404.643" y1="261.17" y2="329.408" gradientTransform="matrix(-1 0 0 1 766.525 0)" gradientUnits="userSpaceOnUse"><stop offset="0" style="stop-color:#22a3ec;stop-opacity:0"/><stop offset=".715" style="stop-color:#22a3ec"/><stop offset=".986" style="stop-color:#22a3ec;stop-opacity:0"/></linearGradient><polygon points="361.5 329.4 361.2 261.2 362.3 261.2 362.6 329.4" class="st30"/></g><g class="st31"><rect width="1.1" height="3.8" x="361.5" y="333.4" class="st28" transform="matrix(1 -2.850099e-03 2.850099e-03 1 -0.954 1.0332)"/></g><g class="st32"><linearGradient id="SVGID_25_" x1="415.827" x2="415.827" y1="264.585" y2="332.823" gradientTransform="matrix(-1 0 0 1 766.525 0)" gradientUnits="userSpaceOnUse"><stop offset="0" style="stop-color:#22a3ec;stop-opacity:0"/><stop offset=".464" style="stop-color:#22a3ec"/><stop offset=".897" style="stop-color:#22a3ec;stop-opacity:0"/></linearGradient><polygon points="350.3 332.8 350 264.6 351.1 264.6 351.4 332.8" class="st33"/></g><g class="st34"><rect width="1.1" height="3.8" x="350.3" y="336.8" class="st28" transform="matrix(1 -2.849729e-03 2.849729e-03 1 -0.9637 1.0012)"/></g><g class="st32"><linearGradient id="SVGID_26_" x1="427.023" x2="427.023" y1="269.02" y2="337.258" gradientTransform="matrix(-1 0 0 1 766.525 0)" gradientUnits="userSpaceOnUse"><stop offset="0" style="stop-color:#22a3ec;stop-opacity:0"/><stop offset=".274" style="stop-color:#22a3ec"/><stop offset=".858" style="stop-color:#22a3ec;stop-opacity:0"/></linearGradient><polygon points="339.1 337.3 338.8 269 339.9 269 340.2 337.3" class="st35"/></g><g class="st34"><rect width="1.1" height="3.8" x="339.1" y="341.2" class="st28" transform="matrix(1 -2.849729e-03 2.849729e-03 1 -0.9764 0.9693)"/></g><g><linearGradient id="SVGID_27_" x1="438.206" x2="438.206" y1="274.463" y2="342.701" gradientTransform="matrix(-1 0 0 1 766.525 0)" gradientUnits="userSpaceOnUse"><stop offset=".201" style="stop-color:#22a3ec;stop-opacity:0"/><stop offset=".631" style="stop-color:#22a3ec"/><stop offset=".986" style="stop-color:#22a3ec;stop-opacity:0"/></linearGradient><polygon points="327.9 342.7 327.6 274.5 328.7 274.5 329 342.7" class="st36"/></g><g class="st34"><rect width="1.1" height="3.8" x="327.9" y="346.7" class="st28" transform="matrix(1 -2.849729e-03 2.849729e-03 1 -0.9919 0.9375)"/></g><g><linearGradient id="SVGID_28_" x1="449.39" x2="449.39" y1="280.92" y2="349.158" gradientTransform="matrix(-1 0 0 1 766.525 0)" gradientUnits="userSpaceOnUse"><stop offset=".134" style="stop-color:#22a3ec;stop-opacity:0"/><stop offset=".71" style="stop-color:#22a3ec"/><stop offset="1" style="stop-color:#22a3ec;stop-opacity:0"/></linearGradient><polygon points="316.7 349.2 316.5 280.9 317.5 280.9 317.8 349.2" class="st37"/></g><g class="st38"><rect width="1.1" height="3.8" x="316.7" y="353.1" class="st28" transform="matrix(1 -2.849729e-03 2.849729e-03 1 -1.0104 0.9056)"/></g><g><linearGradient id="SVGID_29_" x1="305.938" x2="305.938" y1="287.385" y2="355.623" gradientUnits="userSpaceOnUse"><stop offset=".201" style="stop-color:#22a3ec;stop-opacity:0"/><stop offset=".631" style="stop-color:#22a3ec"/><stop offset=".986" style="stop-color:#22a3ec;stop-opacity:0"/></linearGradient><polygon points="305.5 355.6 305.3 287.4 306.3 287.4 306.6 355.6" class="st39"/></g><g class="st38"><rect width="1.1" height="3.8" x="305.5" y="359.6" class="st28" transform="matrix(1 -2.849729e-03 2.849729e-03 1 -1.0288 0.8737)"/></g><g><linearGradient id="SVGID_30_" x1="294.754" x2="294.754" y1="293.841" y2="362.079" gradientUnits="userSpaceOnUse"><stop offset="0" style="stop-color:#22a3ec;stop-opacity:0"/><stop offset=".274" style="stop-color:#22a3ec"/><stop offset=".858" style="stop-color:#22a3ec;stop-opacity:0"/></linearGradient><polygon points="294.3 362.1 294.1 293.8 295.2 293.8 295.4 362.1" class="st40"/></g><g class="st41"><rect width="1.1" height="3.8" x="294.4" y="366" class="st28" transform="matrix(1 -2.590665e-03 2.590665e-03 1 -0.9522 0.7652)"/></g><g><linearGradient id="SVGID_31_" x1="482.967" x2="482.967" y1="300.306" y2="368.543" gradientTransform="matrix(-1 0 0 1 766.525 0)" gradientUnits="userSpaceOnUse"><stop offset="0" style="stop-color:#22a3ec;stop-opacity:0"/><stop offset=".464" style="stop-color:#22a3ec"/><stop offset=".986" style="stop-color:#22a3ec;stop-opacity:0"/></linearGradient><polygon points="283.2 368.5 282.9 300.3 284 300.3 284.2 368.5" class="st42"/></g><g class="st41"><rect width="1.1" height="3.8" x="283.2" y="372.5" class="st28" transform="matrix(1 -2.849729e-03 2.849729e-03 1 -1.0657 0.81)"/></g><linearGradient id="SVGID_32_" x1="272.374" x2="272.374" y1="305.784" y2="363.312" gradientUnits="userSpaceOnUse"><stop offset="0" style="stop-color:#ccec22;stop-opacity:0"/><stop offset=".747" style="stop-color:#ccec22;stop-opacity:.92"/></linearGradient><polygon points="272 375 271.7 306.8 272.7 306.8 273 375" class="st43"/><g class="st41"><rect width="1.1" height="3.8" x="272" y="379" class="st28" transform="matrix(1 -2.850099e-03 2.850099e-03 1 -1.0843 0.7783)"/></g><g><linearGradient id="SVGID_33_" x1="505.347" x2="505.347" y1="313.227" y2="381.465" gradientTransform="matrix(-1 0 0 1 766.525 0)" gradientUnits="userSpaceOnUse"><stop offset="0" style="stop-color:#22a3ec;stop-opacity:0"/><stop offset=".464" style="stop-color:#22a3ec"/><stop offset=".986" style="stop-color:#22a3ec;stop-opacity:0"/></linearGradient><polygon points="260.8 381.5 260.5 313.2 261.6 313.2 261.9 381.5" class="st44"/></g><g class="st41"><rect width="1.1" height="3.8" x="260.8" y="385.4" class="st28" transform="matrix(1 -2.849729e-03 2.849729e-03 1 -1.1027 0.7463)"/></g><g><linearGradient id="SVGID_34_" x1="516.531" x2="516.531" y1="319.684" y2="387.922" gradientTransform="matrix(-1 0 0 1 766.525 0)" gradientUnits="userSpaceOnUse"><stop offset="0" style="stop-color:#22a3ec;stop-opacity:0"/><stop offset=".464" style="stop-color:#22a3ec"/><stop offset=".986" style="stop-color:#22a3ec;stop-opacity:0"/></linearGradient><polygon points="249.6 387.9 249.3 319.7 250.4 319.7 250.7 387.9" class="st45"/></g><g class="st34"><rect width="1.1" height="3.8" x="249.6" y="391.9" class="st28" transform="matrix(1 -2.849729e-03 2.849729e-03 1 -1.1211 0.7144)"/></g><g><linearGradient id="SVGID_35_" x1="527.728" x2="527.728" y1="326.148" y2="394.386" gradientTransform="matrix(-1 0 0 1 766.525 0)" gradientUnits="userSpaceOnUse"><stop offset="0" style="stop-color:#22a3ec;stop-opacity:0"/><stop offset=".464" style="stop-color:#22a3ec"/><stop offset=".986" style="stop-color:#22a3ec;stop-opacity:0"/></linearGradient><polygon points="238.4 394.4 238.1 326.2 239.2 326.1 239.5 394.4" class="st46"/></g><g class="st34"><rect width="1.1" height="3.8" x="238.4" y="398.3" class="st28" transform="matrix(1 -2.849729e-03 2.849729e-03 1 -1.1396 0.6826)"/></g></g><linearGradient id="SVGID_36_" x1="237.282" x2="502.239" y1="346.897" y2="346.897" gradientUnits="userSpaceOnUse"><stop offset="0" style="stop-color:#22a3ec"/><stop offset=".314" style="stop-color:#4c82e7;stop-opacity:.5424"/><stop offset=".686" style="stop-color:#8258e1;stop-opacity:0"/></linearGradient><path d="M423.3,303.9v43.4l-7.6,0.1c-25.7-13.3-56.5-12.6-81.7,1.9l-46,26.5l-50.8,26.4l0.2-12c0,0,23-6.2,34.1-28.9 c11.2-22.7,24.5-21.4,29.5-30.4c5-9,10.9-37.5,23-39.1c12.1-1.6,18.9,10.9,27,23.3c8.1,12.4,22.6,22.4,34.4,6.6 C397.2,305.8,410.8,303.1,423.3,303.9z" class="st47"/><g><linearGradient id="SVGID_37_" x1="236.39" x2="424.363" y1="340.876" y2="340.876" gradientUnits="userSpaceOnUse"><stop offset="0" style="stop-color:#e8ccf0;stop-opacity:.2"/><stop offset=".386" style="stop-color:#e8ccf0"/><stop offset=".454" style="stop-color:#e1c4ef;stop-opacity:.8504"/><stop offset=".56" style="stop-color:#ceaeec;stop-opacity:.6186"/><stop offset=".691" style="stop-color:#ae8be8;stop-opacity:.3336"/><stop offset=".839" style="stop-color:#8359e1;stop-opacity:9.034276e-03"/><stop offset=".844" style="stop-color:#8258e1;stop-opacity:0"/></linearGradient><path d="M237.4,391.2c-0.5,0-0.9-0.3-1-0.8c-0.2-0.6,0.2-1.1,0.7-1.3c0.2-0.1,22.6-6.4,33.5-28.3 c7.1-14.3,14.9-19.2,21.1-23.1c3.7-2.3,6.6-4.1,8.4-7.3c1.3-2.4,2.8-6.3,4.4-10.9c4.4-12.3,10-27.6,19.3-28.8 c11.8-1.5,18.7,9.3,26.1,20.8c0.6,1,1.3,2,1.9,3c5.7,8.7,12.9,14.1,19.4,14.3c4.8,0.2,9.3-2.4,13.2-7.7 c13.2-17.7,28.5-18.8,38.9-18.2c0.6,0,1,0.5,1,1.1c0,0.6-0.5,1-1.1,1c-9.9-0.6-24.5,0.4-37,17.3c-4.4,5.9-9.4,8.7-15,8.6 c-7.2-0.2-15.1-5.9-21.1-15.2c-0.6-1-1.3-2-1.9-3c-7.3-11.4-13.6-21.2-24.1-19.8c-8.1,1-13.6,16.3-17.6,27.4 c-1.7,4.6-3.1,8.6-4.5,11.2c-2,3.7-5.3,5.7-9.1,8.1c-6.1,3.8-13.6,8.5-20.4,22.3c-11.3,22.8-34.6,29.3-34.8,29.4 C237.6,391.2,237.5,391.2,237.4,391.2z" class="st48"/></g><linearGradient id="SVGID_38_" x1="342.265" x2="255.89" y1="479.428" y2="436.917" gradientUnits="userSpaceOnUse"><stop offset="0" style="stop-color:#1c1c23"/><stop offset=".766" style="stop-color:#2b264c;stop-opacity:0"/></linearGradient><polygon points="338.9 463.1 331.1 452.1 258.2 437.8 248.8 455.2 317.9 468.3 313.9 462" class="st49"/><linearGradient id="SVGID_39_" x1="432.667" x2="350.596" y1="459.352" y2="418.96" gradientUnits="userSpaceOnUse"><stop offset="0" style="stop-color:#1c1c23"/><stop offset=".766" style="stop-color:#2b264c;stop-opacity:0"/></linearGradient><polygon points="429.3 444.2 427.3 435.3 363.8 425.6 343.6 436.9" class="st50"/><g class="st51"><g><path d="M240.4,413c-0.2,0-0.4-0.1-0.5-0.3c-0.1-0.3-0.1-0.6,0.2-0.7l27.8-16c0.3-0.2,0.6-0.1,0.7,0.2 c0.1,0.3,0.1,0.6-0.2,0.7l-27.8,16C240.6,413,240.5,413,240.4,413z" class="st52"/></g><g><path d="M240.4,418.1c-0.2,0-0.4-0.1-0.5-0.3c0-0.1-0.1-0.2-0.1-0.3c0-0.2,0.1-0.4,0.3-0.5l17.2-9.9 c0.3-0.1,0.6-0.1,0.7,0.2c0,0.1,0.1,0.2,0.1,0.3c0,0.2-0.1,0.4-0.3,0.5l-17.2,9.9C240.6,418.1,240.5,418.1,240.4,418.1z" class="st52"/></g></g><g class="st51"><g><path d="M451.1,282.5c-0.1,0-0.2,0-0.3-0.1l-27.8-16c-0.3-0.1-0.3-0.5-0.2-0.7c0.1-0.3,0.5-0.4,0.7-0.2l27.8,16 c0.3,0.1,0.3,0.5,0.2,0.7C451.5,282.4,451.3,282.5,451.1,282.5z" class="st52"/></g><g><path d="M451.1,287.6c-0.1,0-0.2,0-0.3-0.1l-17.2-9.9c-0.2-0.1-0.3-0.3-0.3-0.5c0-0.1,0-0.2,0.1-0.3 c0.1-0.3,0.5-0.3,0.7-0.2l17.2,9.9c0.2,0.1,0.3,0.3,0.3,0.5c0,0.1,0,0.2-0.1,0.3C451.4,287.5,451.3,287.6,451.1,287.6z" class="st52"/></g></g><g><radialGradient id="SVGID_40_" cx="484.105" cy="356.896" r="14.272" gradientTransform="matrix(-0.4933 0.8699 0.5131 0.2909 328.6372 -168.0508)" gradientUnits="userSpaceOnUse"><stop offset="0" style="stop-color:#320d4f;stop-opacity:.5"/><stop offset=".177" style="stop-color:#503946;stop-opacity:.5887"/><stop offset=".583" style="stop-color:#929833;stop-opacity:.7913"/><stop offset=".866" style="stop-color:#bcd527;stop-opacity:.9328"/><stop offset="1" style="stop-color:#ccec22"/></radialGradient><path d="M272.9,344.8c-5.8,3.4-10.5,11.5-10.5,18.2c0,6.7,4.8,9.4,10.6,6c5.8-3.4,10.5-11.5,10.5-18.2 C283.5,344.1,278.7,341.4,272.9,344.8L272.9,344.8z" class="st53"/><radialGradient id="SVGID_41_" cx="484.109" cy="356.897" r="4.638" gradientTransform="matrix(-0.5108 0.8597 0.5852 0.3477 311.3646 -183.3821)" gradientUnits="userSpaceOnUse"><stop offset="0" style="stop-color:#320d4f;stop-opacity:.4"/><stop offset=".008" style="stop-color:#330f4f;stop-opacity:.4031"/><stop offset=".375" style="stop-color:#746d3c;stop-opacity:.5433"/><stop offset=".672" style="stop-color:#a3b12e;stop-opacity:.6569"/><stop offset=".886" style="stop-color:#c1dc25;stop-opacity:.7385"/><stop offset=".994" style="stop-color:#ccec22;stop-opacity:.78"/></radialGradient><path d="M272.9,352.3c-2.2,1.3-4,4.4-4,7c0,2.5,1.8,3.6,4,2.3c2.2-1.3,4-4.4,4-6.9C277,352,275.2,351,272.9,352.3 L272.9,352.3z" class="st54"/><path d="M272.9,355c0.9-0.5,1.7-0.1,1.7,1c0,1.1-0.7,2.4-1.7,2.9c-0.9,0.5-1.7,0.1-1.7-1 C271.3,356.8,272,355.5,272.9,355L272.9,355z" class="st55"/></g><linearGradient id="SVGID_42_" x1="444.162" x2="400.042" y1="354.304" y2="278.292" gradientUnits="userSpaceOnUse"><stop offset="0" style="stop-color:#ccec22"/><stop offset=".035" style="stop-color:#cadd31;stop-opacity:.935"/><stop offset=".218" style="stop-color:#c19379;stop-opacity:.5991"/><stop offset=".369" style="stop-color:#bb5dae;stop-opacity:.3204"/><stop offset=".482" style="stop-color:#b73ccf;stop-opacity:.113"/><stop offset=".543" style="stop-color:#b52fdb;stop-opacity:0"/></linearGradient><path d="M429.3,310.3c-8.8-5.1-15.9-1-15.9,9.1c0,10.1,7.1,22.3,15.8,27.4c8.8,5.1,15.9,1,15.9-9.1 C445.1,327.6,438,315.4,429.3,310.3L429.3,310.3z" class="st56"/><g><linearGradient id="SVGID_43_" x1="445.564" x2="412.868" y1="356.718" y2="300.388" gradientUnits="userSpaceOnUse"><stop offset="0" style="stop-color:#ccec22"/><stop offset=".065" style="stop-color:#cadd31;stop-opacity:.935"/><stop offset=".401" style="stop-color:#c19379;stop-opacity:.5991"/><stop offset=".68" style="stop-color:#bb5dae;stop-opacity:.3204"/><stop offset=".887" style="stop-color:#b73ccf;stop-opacity:.113"/><stop offset="1" style="stop-color:#b52fdb;stop-opacity:0"/></linearGradient><path d="M439.4,358.3c-3.2,0-6.8-1.1-10.4-3.2c-12.7-7.3-23-25.1-22.9-39.7c0-7.1,2.5-12.5,6.9-15 c4.5-2.6,10.4-2,16.6,1.6c12.7,7.3,23,25.1,22.9,39.7c0,7.1-2.5,12.5-6.9,15C443.7,357.8,441.6,358.3,439.4,358.3z M419.1,299.7 c-2.1,0-4,0.5-5.7,1.5c-4.2,2.4-6.4,7.5-6.5,14.3c0,14.3,10.1,31.8,22.5,39c6,3.4,11.5,4,15.7,1.6c4.1-2.4,6.4-7.4,6.5-14.3 c0-14.3-10-31.8-22.5-39l0,0C425.5,300.7,422.1,299.7,419.1,299.7z" class="st57"/></g><g><path d="M341.5,460.5c0,0,0.6,3.4-4.5,3.1c-2.7-0.2-10.1-9.5-9.5-11.2c0.6-1.7,3.8-0.8,5.2,0.3L341.5,460.5z" class="st58"/><path d="M321.7,464.5c0,0,1.5,5.3-3.5,4.3c-5.1-1.1-12.8-4.6-12.9-8.1c-0.1-3.4,8,0,8,0L321.7,464.5z" class="st58"/><path d="M284.8,365.7l-3,5.3c-2.4-1.5-5.3-3.2-6.8-3.9c-2-0.8-1-5.7-1-5.7c-0.5-0.8-2.5-4.2-2.6-4.4l3,2.3 C277.2,362.1,282,364.4,284.8,365.7z" class="st59"/><path d="M324.5,350.8c-0.4-2-0.6-3-0.3-5.4c0,0-7.2-4.5,0.2-12.5l8.9,5c-1.5,5.3-2.9,10.6-2.2,13.7 c-2.1,1.6-4.1,1.8-6.1,0.5C324.7,351.9,324.5,351.4,324.5,350.8z" class="st59"/><path d="M331.4,347.8c2.6-4.3,3.6-1.8,6.4-7.2c2.5-4.8-0.8-8.8-3.9-9.6c0,0-2.8-3.2-6.5-3.4 c-3.5-0.1-6.8,3.4-3.9,7.4c1.5,2-1,2.7,1,3.6c2.8,1.2,0.2,6.9,4.8,8.2L331.4,347.8z" class="st58"/><linearGradient id="SVGID_44_" x1="279.19" x2="387.266" y1="469.395" y2="377.219" gradientUnits="userSpaceOnUse"><stop offset="0" style="stop-color:#22a0e9"/><stop offset=".258" style="stop-color:#4f7de4"/><stop offset=".602" style="stop-color:#8453dd"/><stop offset=".86" style="stop-color:#a539d9"/><stop offset="1" style="stop-color:#b22fd8"/></linearGradient><path d="M341.5,460.5c0,0-5.4,2.8-8.8-6.2l-0.5-9.5l-3.1-33.4l-5.2,18l-1.5,8.4c0,0-0.1,0-0.1-0.1l0.2,26.6 c-4.4,3.7-9.1-1.9-9.1-1.9l-1.3-31c-0.1-0.1-0.2-0.1-0.3-0.2l0.3-3.3l3-33.4l0.1,1c0,0,21,0.6,24.3-7l0.2-0.8c0,0,0,0,0,0 l-0.3,39.4l1.6,23.1c0,0.4,0,0.7-0.1,1L341.5,460.5z" class="st60"/><linearGradient id="SVGID_45_" x1="317.454" x2="317.812" y1="402.524" y2="357.818" gradientUnits="userSpaceOnUse"><stop offset="0" style="stop-color:#282447"/><stop offset="1" style="stop-color:#565499"/></linearGradient><path d="M353.6,370.8c-4.8-12.3-11.2-21.7-17.9-21.8c-1.7,0-3.9,0.2-6.2,0.4c-6.5,0.8-12.9,2.5-18.8,5.3 c-5.3,2.5-13.6,16.6-26,10.7l-3.5,6c9.2,9.1,25.4,1.1,31.2-1.5l2.5,25.6c0,0,21,0.6,24.3-7l0.7-2.8 C340.1,385.7,356.6,378.6,353.6,370.8z M343.2,375.1l-2.7,2.3v-12.1l3.8,4.7C345.8,371.8,345,373.8,343.2,375.1z" class="st61"/></g><g><linearGradient id="SVGID_46_" x1="455.085" x2="430.855" y1="341.57" y2="299.826" gradientUnits="userSpaceOnUse"><stop offset="0" style="stop-color:#ccec22"/><stop offset=".065" style="stop-color:#cadd31;stop-opacity:.935"/><stop offset=".401" style="stop-color:#c19379;stop-opacity:.5991"/><stop offset=".68" style="stop-color:#bb5dae;stop-opacity:.3204"/><stop offset=".887" style="stop-color:#b73ccf;stop-opacity:.113"/><stop offset="1" style="stop-color:#b52fdb;stop-opacity:0"/></linearGradient><path d="M452,343.1C452,343.1,452,343.1,452,343.1c-0.8,0-1.4-0.6-1.4-1.4c0-14-9.8-31.1-22-38.1 c-0.7-0.4-0.9-1.3-0.5-1.9c0.4-0.7,1.3-0.9,1.9-0.5c13,7.5,23.5,25.7,23.4,40.6C453.4,342.5,452.8,343.1,452,343.1z" class="st62"/></g><linearGradient id="SVGID_47_" x1="-6456.961" x2="-6438.817" y1="385.271" y2="199.292" gradientTransform="matrix(1 0 0 1 6671.7744 0)" gradientUnits="userSpaceOnUse"><stop offset="0" style="stop-color:#d1f122"/><stop offset=".084" style="stop-color:#cfdd36"/><stop offset=".413" style="stop-color:#c6937e"/><stop offset=".686" style="stop-color:#bf5db3"/><stop offset=".889" style="stop-color:#bb3cd4"/><stop offset="1" style="stop-color:#ba2fe0"/></linearGradient><path d="M198,344.8l-0.1-31.1c0-2,1-3.9,2.5-4.9L241,283c1.9-1.2,4.3,0.3,4.3,2.8l0.1,31.1c0,2-1,3.9-2.5,4.9 l-40.6,25.9C200.4,348.8,198,347.3,198,344.8z" class="st63"/><g><path d="M427.2,440.9c0,0-1.2,4.2,2.7,3.3s10-3.6,10.1-6.3c0.1-2.7-6.2,0-6.2,0L427.2,440.9z" class="st58"/><path d="M432.9,338.7c0,0,3.5,0.1,6.6-1.7l-0.3-1c0,0-2.5,0.8-2.7,0.5s-0.7-2.1,5.1-5.9l-0.3-1l-5,1.8 c0,0-3.2-0.7-3.5,0.2l-2,3.5C432.1,336.1,432.9,337.2,432.9,338.7z" class="st64"/><linearGradient id="SVGID_48_" x1="443.402" x2="419.161" y1="333.701" y2="343.47" gradientUnits="userSpaceOnUse"><stop offset="0" style="stop-color:#ba2fe0"/><stop offset=".217" style="stop-color:#ad3ae1"/><stop offset=".612" style="stop-color:#8c56e5"/><stop offset="1" style="stop-color:#6676ea"/></linearGradient><path d="M431.3,333.8c0,0-11.4,6.1-17.4,7.6c0.1,0.2,0.2,0.3,0.3,0.5c0.3,0.5,0.6,1.1,0.8,1.6 c0.4,0.9,0.8,1.7,1.2,2.6c0.4,0.9,0.9,1.9,1.1,3c6.3-2.4,13.8-8.1,16.4-10.8C435.9,336,431.3,333.8,431.3,333.8z" class="st65"/><path d="M416.1,434.1l0.4,0.1c1.2,0.4,1.6,2,0.7,2.9c-2.3,2.4-5,4.3-8.4,5.4c-0.6,0.2-1.3,0.2-1.9,0l-1.1-0.3 c-1.1-0.4-1.7-1.6-1.4-2.7l1.7-1.4l8.6-3.9C415.1,434,415.6,434,416.1,434.1z" class="st58"/><path d="M412.9,414.5l-3.4,23.3c-2.1,4.1-4.7,2.5-4.7,2.5c-0.1-1.2-0.5-16.2-0.8-26.8 C406.8,413.9,409.8,414.3,412.9,414.5z" class="st66"/><path d="M433.2,413.9l-1.6,25.8c-0.7,1.9-2.4,2.8-4,2.1l-3.3-27C427.3,414.6,430.3,414.3,433.2,413.9z" class="st66"/><path d="M410.3,329.8c0,0,0.5,6.3-0.9,7c-1.4,0.6,7.2,1,7.2,1l0.8-4.7c0,0,6.7,1.4,4-11.4 C418.7,308.9,410.3,329.8,410.3,329.8z" class="st64"/><linearGradient id="SVGID_49_" x1="417.83" x2="418.339" y1="424.617" y2="360.949" gradientUnits="userSpaceOnUse"><stop offset="0" style="stop-color:#282447"/><stop offset="1" style="stop-color:#565499"/></linearGradient><path d="M434.4,413.7c-10,1.6-20.9,1.2-30.9-0.3c-0.1-5.3-2.7-28.9-1.4-35.2c0.2-1.1,0.5-2,0.8-2.8 c6.8-0.5,16.4,6.6,20.1-0.4c0.7,4,2,8.4,4.1,12.9c5,10.6,6.6,18.9,6.6,18.9S434.1,409.9,434.4,413.7z" class="st67"/><linearGradient id="SVGID_50_" x1="228.785" x2="232.431" y1="576.89" y2="539.518" gradientTransform="matrix(0.9656 -0.2599 0.2599 0.9656 46.6773 -155.8072)" gradientUnits="userSpaceOnUse"><stop offset="0" style="stop-color:#d1f122"/><stop offset=".084" style="stop-color:#cfdd36"/><stop offset=".413" style="stop-color:#c6937e"/><stop offset=".686" style="stop-color:#bf5db3"/><stop offset=".889" style="stop-color:#bb3cd4"/><stop offset="1" style="stop-color:#ba2fe0"/></linearGradient><path d="M407.8,330.3c0,0,5.2,2.6,8.6-1.3c0,0-1.9-5.1,2.2-4.5c0,0,5.7-4.1,2.9-6.4c-2.5-2-6.3-2-9.4-0.7 c-0.8,0.3-1.5,0.9-2,1.6C406.8,323.2,405.5,327,407.8,330.3z" class="st68"/><linearGradient id="SVGID_51_" x1="220.382" x2="285.849" y1="444.788" y2="444.788" gradientTransform="matrix(0.9951 -9.847216e-02 9.847216e-02 0.9951 119.2184 -61.2363)" gradientUnits="userSpaceOnUse"><stop offset="0" style="stop-color:#6676ea"/><stop offset=".388" style="stop-color:#8c56e5"/><stop offset=".783" style="stop-color:#ad3ae1"/><stop offset="1" style="stop-color:#ba2fe0"/></linearGradient><path d="M424.9,345.4C424.9,345.4,424.9,345.4,424.9,345.4c0.1-1.3-0.4-2.6-1.4-3.4c-4-3.2-13-8.4-20-6 c-1.4,0.5-1.7,12.8-1.5,14.6c2.2,14.9,1.9,19.9,0.8,24.9c6.9-0.6,16.6,6.7,20.2-0.5c-1.6-10.1,1.4-16.9,1.4-16.9 S424.7,349.6,424.9,345.4z" class="st69"/><linearGradient id="SVGID_52_" x1="409.075" x2="437.395" y1="445.747" y2="445.747" gradientTransform="matrix(0.9951 -9.847216e-02 9.847216e-02 0.9951 -36.4767 -45.8298)" gradientUnits="userSpaceOnUse"><stop offset="0" style="stop-color:#9c48e4"/><stop offset=".309" style="stop-color:#8f53e5"/><stop offset=".874" style="stop-color:#6e6fe9"/><stop offset="1" style="stop-color:#6676ea"/></linearGradient><path d="M419.7,342.2c0.2-1.1,0.8-2.4,1.8-2.2c0.6,0.1,1,0.6,1.4,1.1c4.8,7.1,8.8,14.6,12.1,22.5 c0.9,2.2,1.7,4.7,0.5,6.8c-1.1,1.8-3.4,2.4-5.6,2.4s-4.2-0.5-6.3-0.1c0-1.3-0.1-2.7-0.1-4c1.4,0.5,3-0.3,3.6-1.6s0.4-2.9-0.4-4.1 c-1-1.5-2.4-1.7-3.7-2.7c-1.4-1-1.9-3.2-2.3-4.8C419.3,351.1,419,346.5,419.7,342.2z" class="st70"/><path d="M419.4,372.1c0.7,0.2,1.5,0.5,2.3,0.4c0.8-0.1,1.6-0.5,1.9-1.2c0.3-0.7,0.3-3.1-0.6-3.1 c-0.2,0-0.7,0.2-0.8,0.4c-0.2,0.5-0.1,1.2-0.5,1.6C420.8,371.2,419.3,370.5,419.4,372.1z" class="st64"/><linearGradient id="SVGID_53_" x1="-749.353" x2="-753.218" y1="117.425" y2="59.123" gradientTransform="matrix(-0.988 -0.1542 -0.1542 0.988 -320.6753 122.1749)" gradientUnits="userSpaceOnUse"><stop offset="0" style="stop-color:#cded22"/><stop offset=".178" style="stop-color:#c7bf4f"/><stop offset=".438" style="stop-color:#c0828b"/><stop offset=".659" style="stop-color:#bb55b7"/><stop offset=".829" style="stop-color:#b739d2"/><stop offset=".928" style="stop-color:#b62fdc"/></linearGradient><path d="M408.8,344.9c-0.8,0.9-8.7,2.7-10-0.5c-1.3-3-0.2-4.1,1.7-5c1.7-0.9,1.4-3.6,1.1-5.5 c-0.5-2.5-0.4-5.7,0.9-8.5c1.7-3.6,3.6-4.2,7.1-4c3.6,0.2,2,3.4-0.1,5.1c-1.8,1.4-0.8,4.5,0.4,8.4 C411.5,340.2,410.1,343.5,408.8,344.9z" class="st71"/><linearGradient id="SVGID_54_" x1="-1380.704" x2="-1380.643" y1="326.969" y2="319.363" gradientTransform="matrix(-1 0 0 1 -970.6509 0)" gradientUnits="userSpaceOnUse"><stop offset=".194" style="stop-color:#7d73ca"/><stop offset=".875" style="stop-color:#6d6f80"/></linearGradient><path d="M410.1,326.2c0.2-1.1-0.5-4.3-1.6-4.6c-1.1-0.3,1-0.7,1-0.7s1.7-0.9,2.2,2.2 C412.4,326.5,410.1,326.2,410.1,326.2z" class="st72"/></g></g></svg>